<?xml version="1.0" standalone="no"?>
<!DOCTYPE svg PUBLIC "-//W3C//DTD SVG 20010904//EN"
 "http://www.w3.org/TR/2001/REC-SVG-20010904/DTD/svg10.dtd">
<svg version="1.0" xmlns="http://www.w3.org/2000/svg"
 width="512.000000pt" height="512.000000pt" viewBox="0 0 512.000000 512.000000"
 preserveAspectRatio="xMidYMid meet">
<metadata>
Created by potrace 1.14, written by Peter Selinger 2001-2017
</metadata>
<g transform="translate(0.000000,512.000000) scale(0.100000,-0.100000)"
fill="#000000" stroke="none">
<path d="M0 2560 l0 -2560 2560 0 2560 0 0 2560 0 2560 -2560 0 -2560 0 0
-2560z m2510 1194 c0 -212 3 -384 8 -382 4 2 60 31 123 66 64 34 120 62 123
62 4 0 60 -29 125 -65 65 -36 121 -65 125 -65 3 0 6 173 6 385 l0 385 288 0
c173 0 302 -4 326 -11 50 -14 118 -77 141 -131 9 -24 30 -70 46 -102 16 -32
29 -73 29 -90 0 -18 9 -49 20 -71 20 -39 20 -59 20 -1313 0 -1233 -1 -1274
-19 -1310 -23 -44 -62 -82 -111 -108 -33 -18 -80 -19 -967 -22 l-933 -2 0 60
0 60 -226 0 -226 0 -29 29 c-24 25 -29 37 -29 80 l0 51 255 0 255 0 0 1440 0
1440 325 0 325 0 0 -386z m328 84 l46 -3 -37 -25 c-22 -15 -35 -31 -32 -40 2
-8 7 -28 11 -45 l7 -30 -34 26 -34 26 -35 -23 c-18 -13 -35 -22 -37 -21 -1 2
3 20 9 41 12 37 11 39 -22 67 l-35 28 46 1 c45 0 46 1 59 43 l13 42 14 -42
c14 -40 16 -42 61 -45z"/>
</g>
</svg>
